# xmcd
#
# Track frame offsets: 
#        150
#        22007
#        42935
#        64732
#
# Disc length: 1137 seconds
#
# Revision: 1
# Processed by: cddbd v1.5.2PL0 Copyright (c) Steve Scherf et al.
# Submitted via: ExactAudioCopy v1.3
#
DISCID=2f046f04
DTITLE=東方神起 - SOMEBODY TO LOVE
DYEAR=1900
DGENRE=R&B
TTITLE0=Somebody To Love
TTITLE1=言葉はいらない
TTITLE2=Somebody To Love(Less Vocal)
TTITLE3=言葉はいらない(Less Vocal)
EXTD=
EXTT0=
EXTT1=
EXTT2=
EXTT3=
PLAYORDER=
